<?xml version="1.0" encoding="utf-8"?>
<!-- Generator: Adobe Illustrator 19.0.0, SVG Export Plug-In . SVG Version: 6.00 Build 0)  -->
<!DOCTYPE svg PUBLIC "-//W3C//DTD SVG 1.1//EN" "http://www.w3.org/Graphics/SVG/1.1/DTD/svg11.dtd">
<svg version="1.1" id="Layer_1" xmlns="http://www.w3.org/2000/svg" xmlns:xlink="http://www.w3.org/1999/xlink" x="0px" y="0px"
	 viewBox="-7 9 36 36" style="enable-background:new -7 9 36 36;" xml:space="preserve">
<style type="text/css">
	.st0{fill:#4D4D4D;}
</style>
<path class="st0" d="M28.2,26.6c0-9.5-7.7-17.2-17.2-17.2C1.5,9.5-6.2,17.2-6.2,26.6c0,9.5,7.7,17.2,17.2,17.2
	c3.2,0,6.2-0.9,8.8-2.4l3.1,3.1l4.5-4.5l-2.9-2.9C26.8,34.2,28.2,30.6,28.2,26.6z M11,37.4c-5.9,0-10.7-4.8-10.7-10.7S5.1,16,11,16
	s10.7,4.8,10.7,10.7c0,2.2-0.7,4.2-1.8,5.9l-3.3-3.3l-4.5,4.5l2.8,2.8C13.8,37.1,12.4,37.4,11,37.4z"/>
</svg>
